<mxfile host="Electron" agent="Mozilla/5.0 (Windows NT 10.0; Win64; x64) AppleWebKit/537.36 (KHTML, like Gecko) draw.io/24.7.5 Chrome/126.0.6478.183 Electron/31.3.0 Safari/537.36" version="24.7.5">
  <diagram id="6a731a19-8d31-9384-78a2-239565b7b9f0" name="Page-1">
    <mxGraphModel dx="4622" dy="3167" grid="1" gridSize="10" guides="1" tooltips="1" connect="1" arrows="1" fold="1" page="1" pageScale="1" pageWidth="1169" pageHeight="827" background="none" math="0" shadow="0">
      <root>
        <mxCell id="0" />
        <mxCell id="1" parent="0" />
        <mxCell id="vbBeiTdjYTLyHqXOJeHc-1780" value="" style="edgeStyle=orthogonalEdgeStyle;rounded=0;orthogonalLoop=1;jettySize=auto;html=1;" parent="1" source="1749" target="vbBeiTdjYTLyHqXOJeHc-1779" edge="1">
          <mxGeometry relative="1" as="geometry" />
        </mxCell>
        <mxCell id="vbBeiTdjYTLyHqXOJeHc-1782" value="" style="edgeStyle=orthogonalEdgeStyle;rounded=0;orthogonalLoop=1;jettySize=auto;html=1;" parent="1" source="1749" target="vbBeiTdjYTLyHqXOJeHc-1781" edge="1">
          <mxGeometry relative="1" as="geometry" />
        </mxCell>
        <mxCell id="vbBeiTdjYTLyHqXOJeHc-1784" value="" style="edgeStyle=orthogonalEdgeStyle;rounded=0;orthogonalLoop=1;jettySize=auto;html=1;" parent="1" source="1749" target="vbBeiTdjYTLyHqXOJeHc-1783" edge="1">
          <mxGeometry relative="1" as="geometry" />
        </mxCell>
        <mxCell id="vbBeiTdjYTLyHqXOJeHc-1786" value="" style="edgeStyle=orthogonalEdgeStyle;rounded=0;orthogonalLoop=1;jettySize=auto;html=1;" parent="1" source="1749" target="vbBeiTdjYTLyHqXOJeHc-1785" edge="1">
          <mxGeometry relative="1" as="geometry" />
        </mxCell>
        <mxCell id="1749" value="Безопасность данных" style="rounded=1;whiteSpace=wrap;html=1;shadow=0;labelBackgroundColor=none;strokeWidth=3;fontFamily=Helvetica;fontSize=16;align=center;fontStyle=1;spacing=5;arcSize=7;perimeterSpacing=2;" parent="1" vertex="1">
          <mxGeometry x="495" y="380.5" width="150" height="70" as="geometry" />
        </mxCell>
        <mxCell id="vbBeiTdjYTLyHqXOJeHc-1788" value="" style="edgeStyle=orthogonalEdgeStyle;rounded=0;orthogonalLoop=1;jettySize=auto;html=1;" parent="1" source="vbBeiTdjYTLyHqXOJeHc-1779" target="vbBeiTdjYTLyHqXOJeHc-1787" edge="1">
          <mxGeometry relative="1" as="geometry">
            <Array as="points">
              <mxPoint x="570" y="200" />
              <mxPoint x="350" y="200" />
            </Array>
          </mxGeometry>
        </mxCell>
        <mxCell id="vbBeiTdjYTLyHqXOJeHc-1790" value="" style="edgeStyle=orthogonalEdgeStyle;rounded=0;orthogonalLoop=1;jettySize=auto;html=1;" parent="1" source="vbBeiTdjYTLyHqXOJeHc-1779" target="vbBeiTdjYTLyHqXOJeHc-1789" edge="1">
          <mxGeometry relative="1" as="geometry">
            <Array as="points">
              <mxPoint x="570" y="200" />
              <mxPoint x="770" y="200" />
            </Array>
          </mxGeometry>
        </mxCell>
        <mxCell id="vbBeiTdjYTLyHqXOJeHc-1791" value="" style="edgeStyle=orthogonalEdgeStyle;rounded=0;orthogonalLoop=1;jettySize=auto;html=1;" parent="1" source="vbBeiTdjYTLyHqXOJeHc-1779" target="vbBeiTdjYTLyHqXOJeHc-1789" edge="1">
          <mxGeometry relative="1" as="geometry">
            <Array as="points">
              <mxPoint x="570" y="200" />
              <mxPoint x="770" y="200" />
            </Array>
          </mxGeometry>
        </mxCell>
        <mxCell id="vbBeiTdjYTLyHqXOJeHc-1795" value="" style="edgeStyle=orthogonalEdgeStyle;rounded=0;orthogonalLoop=1;jettySize=auto;html=1;" parent="1" source="vbBeiTdjYTLyHqXOJeHc-1779" target="vbBeiTdjYTLyHqXOJeHc-1794" edge="1">
          <mxGeometry relative="1" as="geometry">
            <Array as="points">
              <mxPoint x="570" y="180" />
              <mxPoint x="570" y="180" />
            </Array>
          </mxGeometry>
        </mxCell>
        <mxCell id="vbBeiTdjYTLyHqXOJeHc-1779" value="Публичные данные" style="whiteSpace=wrap;html=1;fontSize=16;rounded=1;shadow=0;labelBackgroundColor=none;strokeWidth=3;fontStyle=1;spacing=5;arcSize=7;" parent="1" vertex="1">
          <mxGeometry x="510" y="235.5" width="120" height="60" as="geometry" />
        </mxCell>
        <mxCell id="vbBeiTdjYTLyHqXOJeHc-1820" value="" style="edgeStyle=orthogonalEdgeStyle;rounded=0;orthogonalLoop=1;jettySize=auto;html=1;entryX=0;entryY=0.5;entryDx=0;entryDy=0;" parent="1" source="vbBeiTdjYTLyHqXOJeHc-1781" target="vbBeiTdjYTLyHqXOJeHc-1819" edge="1">
          <mxGeometry relative="1" as="geometry" />
        </mxCell>
        <mxCell id="vbBeiTdjYTLyHqXOJeHc-1822" style="edgeStyle=orthogonalEdgeStyle;rounded=0;orthogonalLoop=1;jettySize=auto;html=1;exitX=1;exitY=0.5;exitDx=0;exitDy=0;entryX=0;entryY=0.5;entryDx=0;entryDy=0;" parent="1" source="vbBeiTdjYTLyHqXOJeHc-1781" target="vbBeiTdjYTLyHqXOJeHc-1821" edge="1">
          <mxGeometry relative="1" as="geometry" />
        </mxCell>
        <mxCell id="vbBeiTdjYTLyHqXOJeHc-1824" style="edgeStyle=orthogonalEdgeStyle;rounded=0;orthogonalLoop=1;jettySize=auto;html=1;exitX=1;exitY=0.5;exitDx=0;exitDy=0;entryX=0;entryY=0.5;entryDx=0;entryDy=0;" parent="1" source="vbBeiTdjYTLyHqXOJeHc-1781" target="vbBeiTdjYTLyHqXOJeHc-1823" edge="1">
          <mxGeometry relative="1" as="geometry" />
        </mxCell>
        <mxCell id="vbBeiTdjYTLyHqXOJeHc-1781" value="Внутренние данные" style="whiteSpace=wrap;html=1;fontSize=16;rounded=1;shadow=0;labelBackgroundColor=none;strokeWidth=3;fontStyle=1;spacing=5;arcSize=7;" parent="1" vertex="1">
          <mxGeometry x="740" y="385.5" width="120" height="60" as="geometry" />
        </mxCell>
        <mxCell id="vbBeiTdjYTLyHqXOJeHc-1906" value="" style="edgeStyle=orthogonalEdgeStyle;rounded=0;orthogonalLoop=1;jettySize=auto;html=1;" parent="1" source="vbBeiTdjYTLyHqXOJeHc-1783" target="vbBeiTdjYTLyHqXOJeHc-1905" edge="1">
          <mxGeometry relative="1" as="geometry">
            <Array as="points">
              <mxPoint x="570" y="710" />
              <mxPoint x="400" y="710" />
            </Array>
          </mxGeometry>
        </mxCell>
        <mxCell id="vbBeiTdjYTLyHqXOJeHc-1908" value="" style="edgeStyle=orthogonalEdgeStyle;rounded=0;orthogonalLoop=1;jettySize=auto;html=1;" parent="1" source="vbBeiTdjYTLyHqXOJeHc-1783" target="vbBeiTdjYTLyHqXOJeHc-1907" edge="1">
          <mxGeometry relative="1" as="geometry">
            <Array as="points">
              <mxPoint x="570" y="780" />
              <mxPoint x="570" y="780" />
            </Array>
          </mxGeometry>
        </mxCell>
        <mxCell id="vbBeiTdjYTLyHqXOJeHc-1916" value="" style="edgeStyle=orthogonalEdgeStyle;rounded=0;orthogonalLoop=1;jettySize=auto;html=1;" parent="1" source="vbBeiTdjYTLyHqXOJeHc-1783" target="vbBeiTdjYTLyHqXOJeHc-1915" edge="1">
          <mxGeometry relative="1" as="geometry">
            <Array as="points">
              <mxPoint x="570" y="710" />
              <mxPoint x="750" y="710" />
            </Array>
          </mxGeometry>
        </mxCell>
        <mxCell id="vbBeiTdjYTLyHqXOJeHc-1783" value="Секретные данные" style="whiteSpace=wrap;html=1;fontSize=16;rounded=1;shadow=0;labelBackgroundColor=none;strokeWidth=3;fontStyle=1;spacing=5;arcSize=7;" parent="1" vertex="1">
          <mxGeometry x="510" y="535.5" width="120" height="60" as="geometry" />
        </mxCell>
        <mxCell id="vbBeiTdjYTLyHqXOJeHc-1860" value="" style="edgeStyle=orthogonalEdgeStyle;rounded=0;orthogonalLoop=1;jettySize=auto;html=1;entryX=1;entryY=0.5;entryDx=0;entryDy=0;" parent="1" source="vbBeiTdjYTLyHqXOJeHc-1785" target="vbBeiTdjYTLyHqXOJeHc-1859" edge="1">
          <mxGeometry relative="1" as="geometry" />
        </mxCell>
        <mxCell id="vbBeiTdjYTLyHqXOJeHc-1867" style="edgeStyle=orthogonalEdgeStyle;rounded=0;orthogonalLoop=1;jettySize=auto;html=1;exitX=0;exitY=0.5;exitDx=0;exitDy=0;entryX=1;entryY=0.5;entryDx=0;entryDy=0;" parent="1" source="vbBeiTdjYTLyHqXOJeHc-1785" target="vbBeiTdjYTLyHqXOJeHc-1861" edge="1">
          <mxGeometry relative="1" as="geometry" />
        </mxCell>
        <mxCell id="vbBeiTdjYTLyHqXOJeHc-1869" style="edgeStyle=orthogonalEdgeStyle;rounded=0;orthogonalLoop=1;jettySize=auto;html=1;exitX=0;exitY=0.5;exitDx=0;exitDy=0;entryX=1;entryY=0.5;entryDx=0;entryDy=0;" parent="1" source="vbBeiTdjYTLyHqXOJeHc-1785" target="vbBeiTdjYTLyHqXOJeHc-1863" edge="1">
          <mxGeometry relative="1" as="geometry" />
        </mxCell>
        <mxCell id="vbBeiTdjYTLyHqXOJeHc-1785" value="Конфиденциальные данные" style="whiteSpace=wrap;html=1;fontSize=16;rounded=1;shadow=0;labelBackgroundColor=none;strokeWidth=3;fontStyle=1;spacing=5;arcSize=7;" parent="1" vertex="1">
          <mxGeometry x="220" y="385.5" width="180" height="60" as="geometry" />
        </mxCell>
        <mxCell id="vbBeiTdjYTLyHqXOJeHc-1797" value="" style="edgeStyle=orthogonalEdgeStyle;rounded=0;orthogonalLoop=1;jettySize=auto;html=1;" parent="1" source="vbBeiTdjYTLyHqXOJeHc-1787" target="vbBeiTdjYTLyHqXOJeHc-1796" edge="1">
          <mxGeometry relative="1" as="geometry" />
        </mxCell>
        <mxCell id="vbBeiTdjYTLyHqXOJeHc-1787" value="Каталог недвижимости" style="whiteSpace=wrap;html=1;fontSize=10;fillColor=#d5e8d4;strokeColor=#82b366;rounded=1;shadow=0;labelBackgroundColor=none;strokeWidth=3;fontStyle=1;spacing=5;arcSize=7;" parent="1" vertex="1">
          <mxGeometry x="290" y="95.5" width="120" height="60" as="geometry" />
        </mxCell>
        <mxCell id="vbBeiTdjYTLyHqXOJeHc-1806" style="edgeStyle=orthogonalEdgeStyle;rounded=0;orthogonalLoop=1;jettySize=auto;html=1;exitX=0.5;exitY=0;exitDx=0;exitDy=0;entryX=0.5;entryY=1;entryDx=0;entryDy=0;" parent="1" source="vbBeiTdjYTLyHqXOJeHc-1789" target="vbBeiTdjYTLyHqXOJeHc-1802" edge="1">
          <mxGeometry relative="1" as="geometry" />
        </mxCell>
        <mxCell id="vbBeiTdjYTLyHqXOJeHc-1789" value="Виртуальные туры" style="whiteSpace=wrap;html=1;fontSize=10;fillColor=#d5e8d4;strokeColor=#82b366;rounded=1;shadow=0;labelBackgroundColor=none;strokeWidth=3;fontStyle=1;spacing=5;arcSize=7;" parent="1" vertex="1">
          <mxGeometry x="710" y="95.5" width="120" height="60" as="geometry" />
        </mxCell>
        <mxCell id="vbBeiTdjYTLyHqXOJeHc-1816" style="edgeStyle=orthogonalEdgeStyle;rounded=0;orthogonalLoop=1;jettySize=auto;html=1;exitX=0.5;exitY=0;exitDx=0;exitDy=0;entryX=0.5;entryY=1;entryDx=0;entryDy=0;" parent="1" source="vbBeiTdjYTLyHqXOJeHc-1794" target="vbBeiTdjYTLyHqXOJeHc-1814" edge="1">
          <mxGeometry relative="1" as="geometry" />
        </mxCell>
        <mxCell id="vbBeiTdjYTLyHqXOJeHc-1794" value="&lt;font style=&quot;font-size: 10px;&quot;&gt;Информация о компании&lt;/font&gt;" style="whiteSpace=wrap;html=1;fontSize=10;fillColor=#d5e8d4;strokeColor=#82b366;rounded=1;shadow=0;labelBackgroundColor=none;strokeWidth=3;fontStyle=1;spacing=5;arcSize=7;" parent="1" vertex="1">
          <mxGeometry x="510" y="95.5" width="120" height="60" as="geometry" />
        </mxCell>
        <mxCell id="vbBeiTdjYTLyHqXOJeHc-1799" value="" style="edgeStyle=orthogonalEdgeStyle;rounded=0;orthogonalLoop=1;jettySize=auto;html=1;" parent="1" source="vbBeiTdjYTLyHqXOJeHc-1796" target="vbBeiTdjYTLyHqXOJeHc-1798" edge="1">
          <mxGeometry relative="1" as="geometry" />
        </mxCell>
        <mxCell id="vbBeiTdjYTLyHqXOJeHc-1796" value="&lt;font style=&quot;font-size: 9px;&quot;&gt;Искажение данных&lt;br style=&quot;font-size: 9px;&quot;&gt;Риск -&amp;nbsp;&lt;/font&gt;&lt;span style=&quot;font-size: 9px;&quot;&gt;незначительный&lt;/span&gt;" style="whiteSpace=wrap;html=1;fontSize=9;rounded=1;shadow=0;labelBackgroundColor=none;strokeWidth=3;fontStyle=1;spacing=5;arcSize=7;" parent="1" vertex="1">
          <mxGeometry x="290" y="-44.5" width="120" height="60" as="geometry" />
        </mxCell>
        <mxCell id="vbBeiTdjYTLyHqXOJeHc-1798" value="Репутационные риски" style="whiteSpace=wrap;html=1;fontSize=9;fillColor=#dae8fc;strokeColor=#6c8ebf;rounded=1;shadow=0;labelBackgroundColor=none;strokeWidth=3;fontStyle=1;spacing=5;arcSize=7;" parent="1" vertex="1">
          <mxGeometry x="290" y="-184.5" width="120" height="60" as="geometry" />
        </mxCell>
        <mxCell id="vbBeiTdjYTLyHqXOJeHc-1805" value="" style="edgeStyle=orthogonalEdgeStyle;rounded=0;orthogonalLoop=1;jettySize=auto;html=1;" parent="1" source="vbBeiTdjYTLyHqXOJeHc-1802" target="vbBeiTdjYTLyHqXOJeHc-1804" edge="1">
          <mxGeometry relative="1" as="geometry" />
        </mxCell>
        <mxCell id="vbBeiTdjYTLyHqXOJeHc-1802" value="Искажение данных&lt;br style=&quot;font-size: 9px;&quot;&gt;Риск - незначительный" style="whiteSpace=wrap;html=1;fontSize=9;rounded=1;shadow=0;labelBackgroundColor=none;strokeWidth=3;fontStyle=1;spacing=5;arcSize=7;" parent="1" vertex="1">
          <mxGeometry x="710" y="-44.5" width="120" height="60" as="geometry" />
        </mxCell>
        <mxCell id="vbBeiTdjYTLyHqXOJeHc-1804" value="Репутационные риски" style="whiteSpace=wrap;html=1;fontSize=9;fillColor=#dae8fc;strokeColor=#6c8ebf;rounded=1;shadow=0;labelBackgroundColor=none;strokeWidth=3;fontStyle=1;spacing=5;arcSize=7;" parent="1" vertex="1">
          <mxGeometry x="710" y="-184.5" width="120" height="60" as="geometry" />
        </mxCell>
        <mxCell id="vbBeiTdjYTLyHqXOJeHc-1813" value="" style="edgeStyle=orthogonalEdgeStyle;rounded=0;orthogonalLoop=1;jettySize=auto;html=1;" parent="1" source="vbBeiTdjYTLyHqXOJeHc-1814" target="vbBeiTdjYTLyHqXOJeHc-1815" edge="1">
          <mxGeometry relative="1" as="geometry" />
        </mxCell>
        <mxCell id="vbBeiTdjYTLyHqXOJeHc-1814" value="&lt;font style=&quot;font-size: 9px;&quot;&gt;Искажение данных&lt;br style=&quot;font-size: 9px;&quot;&gt;Риск -&amp;nbsp;&lt;/font&gt;&lt;span style=&quot;font-size: 9px;&quot;&gt;незначительный&lt;/span&gt;" style="whiteSpace=wrap;html=1;fontSize=9;rounded=1;shadow=0;labelBackgroundColor=none;strokeWidth=3;fontStyle=1;spacing=5;arcSize=7;" parent="1" vertex="1">
          <mxGeometry x="510" y="-44.5" width="120" height="60" as="geometry" />
        </mxCell>
        <mxCell id="vbBeiTdjYTLyHqXOJeHc-1815" value="Репутационные риски" style="whiteSpace=wrap;html=1;fontSize=9;fillColor=#dae8fc;strokeColor=#6c8ebf;rounded=1;shadow=0;labelBackgroundColor=none;strokeWidth=3;fontStyle=1;spacing=5;arcSize=7;" parent="1" vertex="1">
          <mxGeometry x="510" y="-184.5" width="120" height="60" as="geometry" />
        </mxCell>
        <mxCell id="vbBeiTdjYTLyHqXOJeHc-1837" style="edgeStyle=orthogonalEdgeStyle;rounded=0;orthogonalLoop=1;jettySize=auto;html=1;exitX=1;exitY=0.5;exitDx=0;exitDy=0;entryX=0;entryY=0.5;entryDx=0;entryDy=0;" parent="1" source="vbBeiTdjYTLyHqXOJeHc-1819" target="vbBeiTdjYTLyHqXOJeHc-1833" edge="1">
          <mxGeometry relative="1" as="geometry" />
        </mxCell>
        <mxCell id="vbBeiTdjYTLyHqXOJeHc-1838" style="edgeStyle=orthogonalEdgeStyle;rounded=0;orthogonalLoop=1;jettySize=auto;html=1;exitX=1;exitY=0.5;exitDx=0;exitDy=0;entryX=0;entryY=0.5;entryDx=0;entryDy=0;" parent="1" source="vbBeiTdjYTLyHqXOJeHc-1819" target="vbBeiTdjYTLyHqXOJeHc-1834" edge="1">
          <mxGeometry relative="1" as="geometry" />
        </mxCell>
        <mxCell id="vbBeiTdjYTLyHqXOJeHc-1819" value="документы для сотрудников" style="whiteSpace=wrap;html=1;fontSize=10;fillColor=#d5e8d4;strokeColor=#82b366;rounded=1;shadow=0;labelBackgroundColor=none;strokeWidth=3;fontStyle=1;spacing=5;arcSize=7;" parent="1" vertex="1">
          <mxGeometry x="1020" y="204" width="120" height="60" as="geometry" />
        </mxCell>
        <mxCell id="vbBeiTdjYTLyHqXOJeHc-1842" value="" style="edgeStyle=orthogonalEdgeStyle;rounded=0;orthogonalLoop=1;jettySize=auto;html=1;entryX=0;entryY=0.5;entryDx=0;entryDy=0;" parent="1" source="vbBeiTdjYTLyHqXOJeHc-1821" target="vbBeiTdjYTLyHqXOJeHc-1841" edge="1">
          <mxGeometry relative="1" as="geometry" />
        </mxCell>
        <mxCell id="vbBeiTdjYTLyHqXOJeHc-1848" style="edgeStyle=orthogonalEdgeStyle;rounded=0;orthogonalLoop=1;jettySize=auto;html=1;exitX=1;exitY=0.5;exitDx=0;exitDy=0;entryX=0;entryY=0.5;entryDx=0;entryDy=0;" parent="1" source="vbBeiTdjYTLyHqXOJeHc-1821" target="vbBeiTdjYTLyHqXOJeHc-1847" edge="1">
          <mxGeometry relative="1" as="geometry" />
        </mxCell>
        <mxCell id="vbBeiTdjYTLyHqXOJeHc-1821" value="скрипты для техподдержки" style="whiteSpace=wrap;html=1;fontSize=10;fillColor=#d5e8d4;strokeColor=#82b366;rounded=1;shadow=0;labelBackgroundColor=none;strokeWidth=3;fontStyle=1;spacing=5;arcSize=7;" parent="1" vertex="1">
          <mxGeometry x="1020" y="385.5" width="120" height="60" as="geometry" />
        </mxCell>
        <mxCell id="vbBeiTdjYTLyHqXOJeHc-1857" style="edgeStyle=orthogonalEdgeStyle;rounded=0;orthogonalLoop=1;jettySize=auto;html=1;exitX=1;exitY=0.5;exitDx=0;exitDy=0;entryX=0;entryY=0.5;entryDx=0;entryDy=0;" parent="1" source="vbBeiTdjYTLyHqXOJeHc-1823" target="vbBeiTdjYTLyHqXOJeHc-1852" edge="1">
          <mxGeometry relative="1" as="geometry" />
        </mxCell>
        <mxCell id="vbBeiTdjYTLyHqXOJeHc-1858" style="edgeStyle=orthogonalEdgeStyle;rounded=0;orthogonalLoop=1;jettySize=auto;html=1;exitX=1;exitY=0.5;exitDx=0;exitDy=0;entryX=0;entryY=0.5;entryDx=0;entryDy=0;" parent="1" source="vbBeiTdjYTLyHqXOJeHc-1823" target="vbBeiTdjYTLyHqXOJeHc-1854" edge="1">
          <mxGeometry relative="1" as="geometry" />
        </mxCell>
        <mxCell id="vbBeiTdjYTLyHqXOJeHc-1823" value="скрипты для отдела продаж" style="whiteSpace=wrap;html=1;fontSize=10;fillColor=#d5e8d4;strokeColor=#82b366;rounded=1;shadow=0;labelBackgroundColor=none;strokeWidth=3;fontStyle=1;spacing=5;arcSize=7;" parent="1" vertex="1">
          <mxGeometry x="1020" y="530" width="120" height="60" as="geometry" />
        </mxCell>
        <mxCell id="vbBeiTdjYTLyHqXOJeHc-1839" style="edgeStyle=orthogonalEdgeStyle;rounded=0;orthogonalLoop=1;jettySize=auto;html=1;exitX=1;exitY=0.5;exitDx=0;exitDy=0;entryX=0;entryY=0.5;entryDx=0;entryDy=0;" parent="1" source="vbBeiTdjYTLyHqXOJeHc-1833" target="vbBeiTdjYTLyHqXOJeHc-1835" edge="1">
          <mxGeometry relative="1" as="geometry" />
        </mxCell>
        <mxCell id="vbBeiTdjYTLyHqXOJeHc-1833" value="Утечка данных&lt;br&gt;Риск - значительный" style="whiteSpace=wrap;html=1;fontSize=10;rounded=1;shadow=0;labelBackgroundColor=none;strokeWidth=3;fontStyle=1;spacing=5;arcSize=7;" parent="1" vertex="1">
          <mxGeometry x="1220" y="150" width="120" height="60" as="geometry" />
        </mxCell>
        <mxCell id="vbBeiTdjYTLyHqXOJeHc-1840" style="edgeStyle=orthogonalEdgeStyle;rounded=0;orthogonalLoop=1;jettySize=auto;html=1;exitX=1;exitY=0.5;exitDx=0;exitDy=0;entryX=0;entryY=0.5;entryDx=0;entryDy=0;" parent="1" source="vbBeiTdjYTLyHqXOJeHc-1834" target="vbBeiTdjYTLyHqXOJeHc-1836" edge="1">
          <mxGeometry relative="1" as="geometry" />
        </mxCell>
        <mxCell id="vbBeiTdjYTLyHqXOJeHc-1834" value="Искажение данных&lt;br&gt;Риск - значительный" style="whiteSpace=wrap;html=1;fontSize=10;rounded=1;shadow=0;labelBackgroundColor=none;strokeWidth=3;fontStyle=1;spacing=5;arcSize=7;" parent="1" vertex="1">
          <mxGeometry x="1220" y="245.5" width="120" height="60" as="geometry" />
        </mxCell>
        <mxCell id="vbBeiTdjYTLyHqXOJeHc-1835" value="Утечка может привести к потере конкурентных преимуществ." style="whiteSpace=wrap;html=1;fontSize=10;fillColor=#dae8fc;strokeColor=#6c8ebf;rounded=1;shadow=0;labelBackgroundColor=none;strokeWidth=3;fontStyle=1;spacing=5;arcSize=7;" parent="1" vertex="1">
          <mxGeometry x="1420" y="150" width="120" height="60" as="geometry" />
        </mxCell>
        <mxCell id="vbBeiTdjYTLyHqXOJeHc-1836" value="Искажение может ухудшить продажи" style="whiteSpace=wrap;html=1;fontSize=9;fillColor=#dae8fc;strokeColor=#6c8ebf;rounded=1;shadow=0;labelBackgroundColor=none;strokeWidth=3;fontStyle=1;spacing=5;arcSize=7;" parent="1" vertex="1">
          <mxGeometry x="1420" y="245.5" width="120" height="60" as="geometry" />
        </mxCell>
        <mxCell id="vbBeiTdjYTLyHqXOJeHc-1844" value="" style="edgeStyle=orthogonalEdgeStyle;rounded=0;orthogonalLoop=1;jettySize=auto;html=1;" parent="1" source="vbBeiTdjYTLyHqXOJeHc-1841" target="vbBeiTdjYTLyHqXOJeHc-1843" edge="1">
          <mxGeometry relative="1" as="geometry" />
        </mxCell>
        <mxCell id="vbBeiTdjYTLyHqXOJeHc-1841" value="Утечка данных&lt;br style=&quot;font-size: 9px;&quot;&gt;Риск - незначительный" style="whiteSpace=wrap;html=1;fontSize=9;rounded=1;shadow=0;labelBackgroundColor=none;strokeWidth=3;fontStyle=1;spacing=5;arcSize=7;" parent="1" vertex="1">
          <mxGeometry x="1220" y="320" width="120" height="60" as="geometry" />
        </mxCell>
        <mxCell id="vbBeiTdjYTLyHqXOJeHc-1843" value="Утечка данных не приведет к потери конкурентых преимуществ." style="whiteSpace=wrap;html=1;fontSize=9;fillColor=#dae8fc;strokeColor=#6c8ebf;rounded=1;shadow=0;labelBackgroundColor=none;strokeWidth=3;fontStyle=1;spacing=5;arcSize=7;" parent="1" vertex="1">
          <mxGeometry x="1420" y="320" width="160" height="60" as="geometry" />
        </mxCell>
        <mxCell id="vbBeiTdjYTLyHqXOJeHc-1850" value="" style="edgeStyle=orthogonalEdgeStyle;rounded=0;orthogonalLoop=1;jettySize=auto;html=1;" parent="1" source="vbBeiTdjYTLyHqXOJeHc-1847" target="vbBeiTdjYTLyHqXOJeHc-1849" edge="1">
          <mxGeometry relative="1" as="geometry" />
        </mxCell>
        <mxCell id="vbBeiTdjYTLyHqXOJeHc-1847" value="Искажение данных&lt;br style=&quot;font-size: 9px;&quot;&gt;Риск - незначительный" style="whiteSpace=wrap;html=1;fontSize=9;rounded=1;shadow=0;labelBackgroundColor=none;strokeWidth=3;fontStyle=1;spacing=5;arcSize=7;" parent="1" vertex="1">
          <mxGeometry x="1220" y="410" width="120" height="60" as="geometry" />
        </mxCell>
        <mxCell id="vbBeiTdjYTLyHqXOJeHc-1849" value="Искажение данных может ухудшить качество работы с пользователями." style="whiteSpace=wrap;html=1;fontSize=9;fillColor=#dae8fc;strokeColor=#6c8ebf;rounded=1;shadow=0;labelBackgroundColor=none;strokeWidth=3;fontStyle=1;spacing=5;arcSize=7;" parent="1" vertex="1">
          <mxGeometry x="1420" y="410" width="120" height="60" as="geometry" />
        </mxCell>
        <mxCell id="vbBeiTdjYTLyHqXOJeHc-1851" value="" style="edgeStyle=orthogonalEdgeStyle;rounded=0;orthogonalLoop=1;jettySize=auto;html=1;" parent="1" source="vbBeiTdjYTLyHqXOJeHc-1852" target="vbBeiTdjYTLyHqXOJeHc-1855" edge="1">
          <mxGeometry relative="1" as="geometry" />
        </mxCell>
        <mxCell id="vbBeiTdjYTLyHqXOJeHc-1852" value="Утечка данных&lt;br&gt;Риск - значительный" style="whiteSpace=wrap;html=1;fontSize=10;rounded=1;shadow=0;labelBackgroundColor=none;strokeWidth=3;fontStyle=1;spacing=5;arcSize=7;" parent="1" vertex="1">
          <mxGeometry x="1220" y="490" width="120" height="60" as="geometry" />
        </mxCell>
        <mxCell id="vbBeiTdjYTLyHqXOJeHc-1853" value="" style="edgeStyle=orthogonalEdgeStyle;rounded=0;orthogonalLoop=1;jettySize=auto;html=1;" parent="1" source="vbBeiTdjYTLyHqXOJeHc-1854" target="vbBeiTdjYTLyHqXOJeHc-1856" edge="1">
          <mxGeometry relative="1" as="geometry" />
        </mxCell>
        <mxCell id="vbBeiTdjYTLyHqXOJeHc-1854" value="Искажение данных&lt;br&gt;Риск - значительный" style="whiteSpace=wrap;html=1;fontSize=10;rounded=1;shadow=0;labelBackgroundColor=none;strokeWidth=3;fontStyle=1;spacing=5;arcSize=7;" parent="1" vertex="1">
          <mxGeometry x="1220" y="585.5" width="120" height="60" as="geometry" />
        </mxCell>
        <mxCell id="vbBeiTdjYTLyHqXOJeHc-1855" value="Утечка может привести к потере конкурентных преимуществ." style="whiteSpace=wrap;html=1;fontSize=10;fillColor=#dae8fc;strokeColor=#6c8ebf;rounded=1;shadow=0;labelBackgroundColor=none;strokeWidth=3;fontStyle=1;spacing=5;arcSize=7;" parent="1" vertex="1">
          <mxGeometry x="1420" y="490" width="120" height="60" as="geometry" />
        </mxCell>
        <mxCell id="vbBeiTdjYTLyHqXOJeHc-1856" value="Искажение может ухудшить продажи" style="whiteSpace=wrap;html=1;fontSize=9;fillColor=#dae8fc;strokeColor=#6c8ebf;rounded=1;shadow=0;labelBackgroundColor=none;strokeWidth=3;fontStyle=1;spacing=5;arcSize=7;" parent="1" vertex="1">
          <mxGeometry x="1420" y="585.5" width="120" height="60" as="geometry" />
        </mxCell>
        <mxCell id="vbBeiTdjYTLyHqXOJeHc-1874" value="" style="edgeStyle=orthogonalEdgeStyle;rounded=0;orthogonalLoop=1;jettySize=auto;html=1;" parent="1" source="vbBeiTdjYTLyHqXOJeHc-1859" target="vbBeiTdjYTLyHqXOJeHc-1873" edge="1">
          <mxGeometry relative="1" as="geometry" />
        </mxCell>
        <mxCell id="vbBeiTdjYTLyHqXOJeHc-1859" value="персональные данные пользователей" style="whiteSpace=wrap;html=1;fontSize=10;fillColor=#d5e8d4;strokeColor=#82b366;rounded=1;shadow=0;labelBackgroundColor=none;strokeWidth=3;fontStyle=1;spacing=5;arcSize=7;" parent="1" vertex="1">
          <mxGeometry x="-40" y="295.5" width="120" height="60" as="geometry" />
        </mxCell>
        <mxCell id="vbBeiTdjYTLyHqXOJeHc-1883" style="edgeStyle=orthogonalEdgeStyle;rounded=0;orthogonalLoop=1;jettySize=auto;html=1;exitX=0;exitY=0.5;exitDx=0;exitDy=0;entryX=1;entryY=0.5;entryDx=0;entryDy=0;" parent="1" source="vbBeiTdjYTLyHqXOJeHc-1861" target="vbBeiTdjYTLyHqXOJeHc-1878" edge="1">
          <mxGeometry relative="1" as="geometry" />
        </mxCell>
        <mxCell id="vbBeiTdjYTLyHqXOJeHc-1861" value="данные клиентов ЖКХ" style="whiteSpace=wrap;html=1;fontSize=10;fillColor=#d5e8d4;strokeColor=#82b366;rounded=1;shadow=0;labelBackgroundColor=none;strokeWidth=3;fontStyle=1;spacing=5;arcSize=7;" parent="1" vertex="1">
          <mxGeometry x="-40" y="386" width="120" height="60" as="geometry" />
        </mxCell>
        <mxCell id="vbBeiTdjYTLyHqXOJeHc-1891" style="edgeStyle=orthogonalEdgeStyle;rounded=0;orthogonalLoop=1;jettySize=auto;html=1;exitX=0;exitY=0.5;exitDx=0;exitDy=0;entryX=1;entryY=0.5;entryDx=0;entryDy=0;" parent="1" source="vbBeiTdjYTLyHqXOJeHc-1863" target="vbBeiTdjYTLyHqXOJeHc-1886" edge="1">
          <mxGeometry relative="1" as="geometry" />
        </mxCell>
        <mxCell id="vbBeiTdjYTLyHqXOJeHc-1863" value="данные о сделках с недвижимостью" style="whiteSpace=wrap;html=1;fontSize=10;fillColor=#d5e8d4;strokeColor=#82b366;rounded=1;shadow=0;labelBackgroundColor=none;strokeWidth=3;fontStyle=1;spacing=5;arcSize=7;" parent="1" vertex="1">
          <mxGeometry x="-40" y="485.5" width="120" height="60" as="geometry" />
        </mxCell>
        <mxCell id="vbBeiTdjYTLyHqXOJeHc-1876" value="" style="edgeStyle=orthogonalEdgeStyle;rounded=0;orthogonalLoop=1;jettySize=auto;html=1;" parent="1" source="vbBeiTdjYTLyHqXOJeHc-1873" target="vbBeiTdjYTLyHqXOJeHc-1875" edge="1">
          <mxGeometry relative="1" as="geometry" />
        </mxCell>
        <mxCell id="vbBeiTdjYTLyHqXOJeHc-1873" value="Утечка данных&lt;br&gt;Риск - критический" style="whiteSpace=wrap;html=1;fontSize=10;rounded=1;shadow=0;labelBackgroundColor=none;strokeWidth=3;fontStyle=1;spacing=5;arcSize=7;" parent="1" vertex="1">
          <mxGeometry x="-240" y="295.5" width="120" height="60" as="geometry" />
        </mxCell>
        <mxCell id="vbBeiTdjYTLyHqXOJeHc-1875" value="Может привести к юридическим последствиям" style="whiteSpace=wrap;html=1;fontSize=10;fillColor=#dae8fc;strokeColor=#6c8ebf;rounded=1;shadow=0;labelBackgroundColor=none;strokeWidth=3;fontStyle=1;spacing=5;arcSize=7;" parent="1" vertex="1">
          <mxGeometry x="-440" y="295.5" width="120" height="60" as="geometry" />
        </mxCell>
        <mxCell id="vbBeiTdjYTLyHqXOJeHc-1877" value="" style="edgeStyle=orthogonalEdgeStyle;rounded=0;orthogonalLoop=1;jettySize=auto;html=1;" parent="1" source="vbBeiTdjYTLyHqXOJeHc-1878" target="vbBeiTdjYTLyHqXOJeHc-1879" edge="1">
          <mxGeometry relative="1" as="geometry" />
        </mxCell>
        <mxCell id="vbBeiTdjYTLyHqXOJeHc-1878" value="Утечка данных&lt;br&gt;Риск - критический" style="whiteSpace=wrap;html=1;fontSize=10;rounded=1;shadow=0;labelBackgroundColor=none;strokeWidth=3;fontStyle=1;spacing=5;arcSize=7;" parent="1" vertex="1">
          <mxGeometry x="-240" y="386" width="120" height="60" as="geometry" />
        </mxCell>
        <mxCell id="vbBeiTdjYTLyHqXOJeHc-1879" value="Риск репутационных потерь для компании" style="whiteSpace=wrap;html=1;fontSize=10;fillColor=#dae8fc;strokeColor=#6c8ebf;rounded=1;shadow=0;labelBackgroundColor=none;strokeWidth=3;fontStyle=1;spacing=5;arcSize=7;" parent="1" vertex="1">
          <mxGeometry x="-440" y="386" width="120" height="60" as="geometry" />
        </mxCell>
        <mxCell id="vbBeiTdjYTLyHqXOJeHc-1885" value="" style="edgeStyle=orthogonalEdgeStyle;rounded=0;orthogonalLoop=1;jettySize=auto;html=1;" parent="1" source="vbBeiTdjYTLyHqXOJeHc-1886" target="vbBeiTdjYTLyHqXOJeHc-1887" edge="1">
          <mxGeometry relative="1" as="geometry" />
        </mxCell>
        <mxCell id="vbBeiTdjYTLyHqXOJeHc-1886" value="Утечка данных&lt;br&gt;Риск - критический" style="whiteSpace=wrap;html=1;fontSize=10;rounded=1;shadow=0;labelBackgroundColor=none;strokeWidth=3;fontStyle=1;spacing=5;arcSize=7;" parent="1" vertex="1">
          <mxGeometry x="-240" y="485.5" width="120" height="60" as="geometry" />
        </mxCell>
        <mxCell id="vbBeiTdjYTLyHqXOJeHc-1887" value="Может привести к юридическим последствиям" style="whiteSpace=wrap;html=1;fontSize=10;fillColor=#dae8fc;strokeColor=#6c8ebf;rounded=1;shadow=0;labelBackgroundColor=none;strokeWidth=3;fontStyle=1;spacing=5;arcSize=7;" parent="1" vertex="1">
          <mxGeometry x="-440" y="485.5" width="120" height="60" as="geometry" />
        </mxCell>
        <mxCell id="vbBeiTdjYTLyHqXOJeHc-1905" value="платежные данные пользователей" style="whiteSpace=wrap;html=1;fontSize=10;fillColor=#d5e8d4;strokeColor=#82b366;rounded=1;shadow=0;labelBackgroundColor=none;strokeWidth=3;fontStyle=1;spacing=5;arcSize=7;" parent="1" vertex="1">
          <mxGeometry x="335" y="840" width="120" height="60" as="geometry" />
        </mxCell>
        <mxCell id="vbBeiTdjYTLyHqXOJeHc-1907" value="ключи и сертификаты" style="whiteSpace=wrap;html=1;fontSize=10;fillColor=#d5e8d4;strokeColor=#82b366;rounded=1;shadow=0;labelBackgroundColor=none;strokeWidth=3;fontStyle=1;spacing=5;arcSize=7;" parent="1" vertex="1">
          <mxGeometry x="505" y="840" width="120" height="60" as="geometry" />
        </mxCell>
        <mxCell id="vbBeiTdjYTLyHqXOJeHc-1915" value="архитектура и конфигурационные данные системы" style="whiteSpace=wrap;html=1;fontSize=10;fillColor=#d5e8d4;strokeColor=#82b366;rounded=1;shadow=0;labelBackgroundColor=none;strokeWidth=3;fontStyle=1;spacing=5;arcSize=7;" parent="1" vertex="1">
          <mxGeometry x="685" y="840" width="120" height="60" as="geometry" />
        </mxCell>
        <mxCell id="vbBeiTdjYTLyHqXOJeHc-1933" value="" style="edgeStyle=orthogonalEdgeStyle;rounded=0;orthogonalLoop=1;jettySize=auto;html=1;" parent="1" source="vbBeiTdjYTLyHqXOJeHc-1921" target="vbBeiTdjYTLyHqXOJeHc-1932" edge="1">
          <mxGeometry relative="1" as="geometry" />
        </mxCell>
        <mxCell id="vbBeiTdjYTLyHqXOJeHc-1921" value="Утечка данных&lt;br&gt;Риск - критический" style="whiteSpace=wrap;html=1;fontSize=10;rounded=1;shadow=0;labelBackgroundColor=none;strokeWidth=3;fontStyle=1;spacing=5;arcSize=7;" parent="1" vertex="1">
          <mxGeometry x="335" y="990" width="120" height="60" as="geometry" />
        </mxCell>
        <mxCell id="vbBeiTdjYTLyHqXOJeHc-1937" value="" style="edgeStyle=orthogonalEdgeStyle;rounded=0;orthogonalLoop=1;jettySize=auto;html=1;" parent="1" source="vbBeiTdjYTLyHqXOJeHc-1922" target="vbBeiTdjYTLyHqXOJeHc-1936" edge="1">
          <mxGeometry relative="1" as="geometry" />
        </mxCell>
        <mxCell id="vbBeiTdjYTLyHqXOJeHc-1922" value="Утечка данных&lt;br&gt;Риск - критический" style="whiteSpace=wrap;html=1;fontSize=10;rounded=1;shadow=0;labelBackgroundColor=none;strokeWidth=3;fontStyle=1;spacing=5;arcSize=7;" parent="1" vertex="1">
          <mxGeometry x="505" y="990" width="120" height="60" as="geometry" />
        </mxCell>
        <mxCell id="vbBeiTdjYTLyHqXOJeHc-1941" value="" style="edgeStyle=orthogonalEdgeStyle;rounded=0;orthogonalLoop=1;jettySize=auto;html=1;" parent="1" source="vbBeiTdjYTLyHqXOJeHc-1926" target="vbBeiTdjYTLyHqXOJeHc-1940" edge="1">
          <mxGeometry relative="1" as="geometry" />
        </mxCell>
        <mxCell id="vbBeiTdjYTLyHqXOJeHc-1926" value="Утечка данных&lt;br&gt;Риск - критический" style="whiteSpace=wrap;html=1;fontSize=10;rounded=1;shadow=0;labelBackgroundColor=none;strokeWidth=3;fontStyle=1;spacing=5;arcSize=7;" parent="1" vertex="1">
          <mxGeometry x="685" y="990" width="120" height="60" as="geometry" />
        </mxCell>
        <mxCell id="vbBeiTdjYTLyHqXOJeHc-1932" value="Утечка может привести к&amp;nbsp; финансовым и юридическим последствиям." style="whiteSpace=wrap;html=1;fontSize=10;fillColor=#dae8fc;strokeColor=#6c8ebf;rounded=1;shadow=0;labelBackgroundColor=none;strokeWidth=3;fontStyle=1;spacing=5;arcSize=7;" parent="1" vertex="1">
          <mxGeometry x="335" y="1130" width="120" height="80" as="geometry" />
        </mxCell>
        <mxCell id="vbBeiTdjYTLyHqXOJeHc-1936" value="Утечка может привести к нарушению целостности данных." style="whiteSpace=wrap;html=1;fontSize=10;fillColor=#dae8fc;strokeColor=#6c8ebf;rounded=1;shadow=0;labelBackgroundColor=none;strokeWidth=3;fontStyle=1;spacing=5;arcSize=7;" parent="1" vertex="1">
          <mxGeometry x="505" y="1130" width="120" height="80" as="geometry" />
        </mxCell>
        <mxCell id="vbBeiTdjYTLyHqXOJeHc-1940" value="Утечка может привести к ослаблению защиты компании." style="whiteSpace=wrap;html=1;fontSize=10;fillColor=#dae8fc;strokeColor=#6c8ebf;rounded=1;shadow=0;labelBackgroundColor=none;strokeWidth=3;fontStyle=1;spacing=5;arcSize=7;" parent="1" vertex="1">
          <mxGeometry x="685" y="1130" width="120" height="60" as="geometry" />
        </mxCell>
        <mxCell id="d2IIlr2YX9inPr9WDRfM-1749" value="" style="endArrow=classic;html=1;rounded=0;exitX=0.54;exitY=1.025;exitDx=0;exitDy=0;exitPerimeter=0;entryX=0.542;entryY=0;entryDx=0;entryDy=0;entryPerimeter=0;" edge="1" parent="1" source="vbBeiTdjYTLyHqXOJeHc-1905" target="vbBeiTdjYTLyHqXOJeHc-1921">
          <mxGeometry width="50" height="50" relative="1" as="geometry">
            <mxPoint x="380" y="980" as="sourcePoint" />
            <mxPoint x="430" y="930" as="targetPoint" />
          </mxGeometry>
        </mxCell>
        <mxCell id="d2IIlr2YX9inPr9WDRfM-1750" value="" style="endArrow=classic;html=1;rounded=0;exitX=0.548;exitY=1.008;exitDx=0;exitDy=0;exitPerimeter=0;entryX=0.542;entryY=0;entryDx=0;entryDy=0;entryPerimeter=0;" edge="1" parent="1" source="vbBeiTdjYTLyHqXOJeHc-1907" target="vbBeiTdjYTLyHqXOJeHc-1922">
          <mxGeometry width="50" height="50" relative="1" as="geometry">
            <mxPoint x="580" y="960" as="sourcePoint" />
            <mxPoint x="630" y="910" as="targetPoint" />
          </mxGeometry>
        </mxCell>
        <mxCell id="d2IIlr2YX9inPr9WDRfM-1751" value="" style="endArrow=classic;html=1;rounded=0;entryX=0.539;entryY=-0.006;entryDx=0;entryDy=0;entryPerimeter=0;exitX=0.542;exitY=1;exitDx=0;exitDy=0;exitPerimeter=0;" edge="1" parent="1" source="vbBeiTdjYTLyHqXOJeHc-1915" target="vbBeiTdjYTLyHqXOJeHc-1926">
          <mxGeometry width="50" height="50" relative="1" as="geometry">
            <mxPoint x="750" y="920" as="sourcePoint" />
            <mxPoint x="850" y="910" as="targetPoint" />
          </mxGeometry>
        </mxCell>
      </root>
    </mxGraphModel>
  </diagram>
</mxfile>
